<svg width="97" height="96" viewBox="0 0 97 96" fill="none" xmlns="http://www.w3.org/2000/svg">
<g id="Clock">
<path id="Vector (Stroke)" fill-rule="evenodd" clip-rule="evenodd" d="M48.0391 15C29.8137 15 15.0391 29.7746 15.0391 48C15.0391 66.2254 29.8137 81 48.0391 81C66.2645 81 81.0391 66.2254 81.0391 48C81.0391 29.7746 66.2645 15 48.0391 15ZM9.03906 48C9.03906 26.4609 26.5 9 48.0391 9C69.5782 9 87.0391 26.4609 87.0391 48C87.0391 69.5391 69.5782 87 48.0391 87C26.5 87 9.03906 69.5391 9.03906 48ZM48.0391 24C49.6959 24 51.0391 25.3431 51.0391 27V45H69.0391C70.6959 45 72.0391 46.3431 72.0391 48C72.0391 49.6569 70.6959 51 69.0391 51H48.0391C46.3822 51 45.0391 49.6569 45.0391 48V27C45.0391 25.3431 46.3822 24 48.0391 24Z" fill="white"/>
</g>
</svg>
