<svg width="80" height="96" viewBox="0 0 80 96" fill="none" xmlns="http://www.w3.org/2000/svg">
<g id="ForkKnife">
<g id="Vector">
<path fill-rule="evenodd" clip-rule="evenodd" d="M20.6154 0.000576601C22.6546 0.000576601 24.3077 1.65367 24.3077 3.69286V22.1543C24.3077 24.1935 22.6546 25.8466 20.6154 25.8466C18.5762 25.8466 16.9231 24.1935 16.9231 22.1543V3.69286C16.9231 1.65367 18.5762 0.000576601 20.6154 0.000576601Z" fill="white"/>
<path fill-rule="evenodd" clip-rule="evenodd" d="M20.6154 38.7696C22.6546 38.7696 24.3077 40.4227 24.3077 42.4619V92.3077C24.3077 94.3469 22.6546 96 20.6154 96C18.5762 96 16.9231 94.3469 16.9231 92.3077V42.4619C16.9231 40.4227 18.5762 38.7696 20.6154 38.7696Z" fill="white"/>
<path fill-rule="evenodd" clip-rule="evenodd" d="M8.29944 0.0508137C10.3109 0.386055 11.6697 2.28842 11.3345 4.29987L7.69561 26.1331C7.76924 29.4567 9.12158 32.6286 11.4775 34.9845C13.901 37.408 17.188 38.7696 20.6154 38.7696C24.0428 38.7696 27.3298 37.4081 29.7534 34.9845C32.1093 32.6286 33.4616 29.4567 33.5353 26.1331L29.8964 4.29987C29.5611 2.28842 30.92 0.386055 32.9314 0.0508137C34.9429 -0.284428 36.8452 1.07441 37.1805 3.08585L40.8728 25.2396C40.9062 25.4402 40.923 25.6432 40.923 25.8466C40.923 31.2325 38.7835 36.3978 34.9751 40.2062C31.1666 44.0146 26.0013 46.1541 20.6154 46.1541C15.2295 46.1541 10.0642 44.0146 6.25581 40.2062C2.4474 36.3978 0.307861 31.2325 0.307861 25.8466C0.307861 25.6432 0.324664 25.4402 0.358099 25.2396L4.05038 3.08585C4.38563 1.07441 6.28799 -0.284428 8.29944 0.0508137Z" fill="white"/>
<path fill-rule="evenodd" clip-rule="evenodd" d="M78.118 0.668631C79.1045 1.35963 79.692 2.48839 79.692 3.69286V92.3077C79.692 94.3469 78.0389 96 75.9997 96C73.9605 96 72.3074 94.3469 72.3074 92.3077V66.4617H50.1537C49.106 66.4617 48.1076 66.0166 47.4073 65.2373C46.707 64.458 46.3708 63.4178 46.4824 62.3761L50.1537 62.7694C46.4824 62.3761 46.4823 62.3771 46.4824 62.3761L46.484 62.3613L46.4877 62.3277L46.5014 62.2055C46.5133 62.1 46.531 61.9466 46.5547 61.7484C46.6022 61.352 46.6737 60.7761 46.7717 60.0441C46.9676 58.5805 47.2694 56.4907 47.6955 53.9633C48.5463 48.9171 49.8996 42.0855 51.9089 34.9938C53.9104 27.9298 56.6049 20.4549 60.1911 14.202C63.7303 8.03105 68.4459 2.51087 74.7379 0.222876C75.8699 -0.188743 77.1314 -0.0223696 78.118 0.668631ZM54.3643 59.0771H72.3074V10.3415C70.2982 12.2169 68.3882 14.7526 66.5969 17.8759C63.4332 23.3921 60.9354 30.2249 59.0138 37.0069C57.1001 43.7613 55.7996 50.3142 54.9773 55.191C54.7305 56.6546 54.5275 57.9634 54.3643 59.0771Z" fill="white"/>
</g>
</g>
</svg>
